<?xml version="1.0" standalone="no"?>
<!DOCTYPE svg PUBLIC "-//W3C//DTD SVG 20010904//EN"
 "http://www.w3.org/TR/2001/REC-SVG-20010904/DTD/svg10.dtd">
<svg version="1.0" xmlns="http://www.w3.org/2000/svg"
 width="512.000000pt" height="512.000000pt" viewBox="0 0 512.000000 512.000000"
 preserveAspectRatio="xMidYMid meet">
<metadata>
Created by potrace 1.11, written by Peter Selinger 2001-2013
</metadata>
<g transform="translate(0.000000,512.000000) scale(0.100000,-0.100000)"
fill="#000000" stroke="none">
<path d="M405 5108 c-160 -30 -314 -166 -377 -334 l-23 -59 0 -2155 0 -2155
23 -59 c64 -169 213 -300 380 -335 75 -16 4229 -16 4304 0 189 39 358 208 397
397 16 75 16 4229 0 4304 -35 167 -166 316 -335 380 l-59 23 -2130 1 c-1323 1
-2149 -2 -2180 -8z m660 -1833 c126 -387 233 -701 236 -697 4 4 117 320 252
702 l244 695 227 3 226 2 0 -1420 0 -1420 -175 0 -175 0 0 658 c0 361 5 837
11 1057 6 220 9 438 7 484 l-3 84 -256 -744 -255 -744 -106 -3 -106 -3 -31 93
c-16 51 -111 345 -211 653 -242 748 -232 717 -236 713 -2 -2 3 -238 11 -523 8
-286 15 -791 15 -1122 l0 -603 -175 0 -175 0 0 1420 0 1420 223 0 223 0 229
-705z m2855 694 c344 -42 604 -207 733 -464 113 -227 109 -555 -10 -774 -112
-206 -303 -349 -559 -418 -97 -26 -107 -27 -474 -32 l-375 -6 -3 -567 -2 -568
-180 0 -180 0 0 1420 0 1420 483 0 c277 0 519 -4 567 -11z"/>
<path d="M3232 3128 l3 -553 330 0 c282 0 339 3 395 18 202 54 347 191 395
373 19 71 21 232 4 300 -46 187 -165 314 -356 381 l-78 28 -348 3 -347 3 2
-553z"/>
</g>
</svg>
